<svg width="130" height="59" xmlns="http://www.w3.org/2000/svg"><g fill="none" fill-rule="evenodd"><path d="M41.197 5.817h.005c.26.033.455.257.455.522v4.453a.514.514 0 01-.48.516c-1.466.082-2.27.425-3.541 1.029-1.404.668-2.413 1.669-3.027 3.005v13.26c0 .46-.367.832-.82.834l-4.235.012a.828.828 0 01-.825-.835V6.564c0-.24.193-.436.43-.436h4.537c.237 0 .43.196.43.436v2.672s1.781-4.074 7.07-3.419zm63.923 0h.004c.26.033.456.257.456.522v4.453a.514.514 0 01-.48.516c-1.466.082-2.27.425-3.541 1.029-1.404.668-2.413 1.669-3.027 3.005v13.26c0 .46-.368.832-.82.834l-4.235.012a.828.828 0 01-.825-.835V6.626c0-.275.22-.498.49-.498h4.416c.27 0 .49.223.49.498v2.61s1.782-4.074 7.072-3.419zm-26.833-.79c6.744 0 12.21 5.467 12.21 12.21 0 6.744-5.466 12.21-12.21 12.21-6.743 0-12.21-5.466-12.21-12.21 0-6.743 5.467-12.21 12.21-12.21zM64.337 6.65a6.702 6.702 0 012.459-.124l-8.272 22.23a1.004 1.004 0 01-.942.657h-.114a.999.999 0 01-.251.035h-4.91c-.42 0-.796-.263-.941-.657L43.094 6.56a6.576 6.576 0 012.12.054c2.061.375 4.324 1.696 5.641 4.385.185.378.352.783.496 1.217L54.939 22.7l3.6-10.519c.162-.489.354-.94.568-1.358 1.253-2.449 3.3-3.73 5.23-4.174zM16.212 3.59c.684 0 1.106.072 1.106.072l9.21 24.826c.172.463-.162.959-.646.959h-5.2a.692.692 0 01-.647-.46l-2.54-6.968H8.952l-2.5 6.964a.692.692 0 01-.648.464H.692c-.485 0-.819-.497-.646-.96l6.73-17.954c.089-.23.181-.45.276-.666.028-.065.058-.128.087-.191.07-.154.141-.304.215-.45 2.514-5 6.835-5.636 8.86-5.636zm101.735 1.603c5.665 0 10.434 3.793 11.843 8.948a.94.94 0 01-.571 1.122l-4.774 1.856-11.548 4.241a6.526 6.526 0 005.048 2.372 6.51 6.51 0 006.066-4.09.673.673 0 01.625-.43l4.981.001a.37.37 0 01.367.44c-1.107 5.566-6.077 9.766-12.039 9.766-6.934 0-12.525-5.68-12.26-12.585.252-6.537 5.636-11.642 12.262-11.641zm-39.66 5.566a6.478 6.478 0 10-.001 12.955 6.478 6.478 0 000-12.955zm-64.98-2.278L9.895 17.95h6.575l-3.164-9.468zm104.638 2.398c-3.595 0-6.509 2.877-6.509 6.427 0 .177.013.352.027.526l11.736-4.31a6.52 6.52 0 00-5.254-2.643zM12.438 0l2.686.004c1.095 0 1.564.322 1.83 1.118l.284.733c-.176-.01-.373-.016-.595-.016-1.564 0-4.6.323-7.306 2.47l1.133-2.97C10.79.443 11.39 0 12.438 0z" fill="#45D0C1"/><path d="M28.043 47.185c0 .585.068 1.1.228 1.59.136.492.341.936.614 1.287.274.35.616.631 1.003.842.387.21.843.304 1.366.304.479 0 .934-.117 1.321-.327a3.2 3.2 0 001.003-.843c.273-.35.478-.795.637-1.286.137-.491.205-1.03.205-1.614 0-1.17-.273-2.105-.82-2.83-.569-.725-1.343-1.076-2.323-1.076-.478 0-.934.094-1.32.28-.411.211-.752.469-1.026.82-.296.35-.5.771-.66 1.262-.16.492-.228 1.006-.228 1.591m6.4 4.14v-.187c-.25.538-.66 1.005-1.23 1.403-.57.397-1.298.608-2.164.608a4.995 4.995 0 01-2.164-.468 4.581 4.581 0 01-1.616-1.263c-.456-.537-.798-1.169-1.048-1.894-.25-.725-.365-1.497-.365-2.339 0-.795.137-1.544.388-2.269.25-.702.592-1.333 1.047-1.87a5.26 5.26 0 011.64-1.287 4.863 4.863 0 012.118-.468c.479 0 .912.047 1.299.164.364.117.683.257.957.42.273.188.5.398.682.609.183.234.32.468.41.702v-7.274h2.119v14.851c0 .539.023 1.006.045 1.38.023.374.046.608.069.702h-2.073a6.47 6.47 0 01-.068-.608 10.023 10.023 0 01-.046-.912M48.004 51.458a2.748 2.748 0 01-1.45 1.274 4.984 4.984 0 01-1.982.417c-.677 0-1.281-.116-1.813-.347a3.883 3.883 0 01-1.378-.95 4.223 4.223 0 01-.846-1.414c-.217-.532-.314-1.135-.314-1.76v-7.02h2.272v6.695c0 .394.049.742.145 1.09.097.347.242.671.46.926.217.255.483.463.821.626.314.162.726.231 1.209.231.919 0 1.62-.254 2.079-.788.46-.532.676-1.204.676-2.062v-6.719h2.272v9.083c0 .44.025.857.049 1.204.024.371.048.649.072.858h-2.175a6.2 6.2 0 01-.073-.603c-.024-.255-.024-.51-.024-.741M58.099 43.736c-.445 0-.89.072-1.289.24-.397.167-.772.43-1.077.764-.328.334-.585.74-.773 1.242-.187.502-.28 1.1-.28 1.769 0 .645.093 1.218.28 1.72.188.502.445.932.75 1.266.304.359.679.622 1.1.789.422.167.867.263 1.312.263.539 0 .984-.072 1.358-.24a3.59 3.59 0 00.914-.597c.234-.239.421-.502.562-.788a4.54 4.54 0 00.305-.74l1.943.86c-.14.406-.35.836-.608 1.242-.258.43-.61.812-1.031 1.17-.422.36-.913.622-1.475.837a5.673 5.673 0 01-1.968.334c-.82 0-1.592-.167-2.272-.478a5.227 5.227 0 01-1.803-1.29 6.156 6.156 0 01-1.171-1.935c-.305-.74-.445-1.53-.445-2.413 0-.885.14-1.72.445-2.462.28-.74.679-1.385 1.194-1.935.492-.526 1.101-.932 1.804-1.242.68-.311 1.429-.455 2.225-.455.75 0 1.405.096 1.99.311a5.026 5.026 0 011.476.86c.398.359.726.741.984 1.171.257.454.445.884.562 1.314l-1.991.86a4.307 4.307 0 00-.328-.86 3.02 3.02 0 00-.562-.788 4.126 4.126 0 00-.89-.574c-.352-.143-.75-.215-1.241-.215M67.546 47.678c0 .602.068 1.156.227 1.662.137.506.342.963.615 1.324.274.362.616.65 1.003.868a2.76 2.76 0 001.366.337c.478 0 .934-.121 1.321-.337a3.223 3.223 0 001.003-.868c.273-.36.478-.818.637-1.324.137-.506.205-1.06.205-1.662 0-1.204-.273-2.167-.82-2.914-.57-.746-1.344-1.108-2.323-1.108-.98 0-1.776.362-2.346 1.108-.592.747-.888 1.71-.888 2.914m6.4 4.31v-.192c-.25.554-.66 1.036-1.23 1.445-.57.41-1.298.626-2.164.626a4.875 4.875 0 01-2.164-.481 4.666 4.666 0 01-1.617-1.325c-.455-.554-.797-1.228-1.048-1.974-.25-.747-.364-1.542-.364-2.409 0-.819.137-1.59.387-2.336a6.07 6.07 0 011.048-1.902 4.892 4.892 0 011.64-1.3 4.748 4.748 0 012.118-.483c.479 0 .911.049 1.298.169.365.12.684.265.957.434a3.6 3.6 0 01.683.626c.183.24.32.481.41.722v-1.637h2.119v9.44c0 .506.022.963.045 1.373.023.41.046.65.069.77H74.06a6.84 6.84 0 01-.068-.626 10.63 10.63 0 01-.046-.94M83.97 53.829c-.725-.095-1.404-.31-1.99-.67a5.226 5.226 0 01-1.57-1.315 5.643 5.643 0 01-1.03-1.84c-.257-.694-.374-1.46-.374-2.249 0-.885.14-1.698.445-2.439a5.809 5.809 0 011.194-1.937c.492-.55 1.1-.956 1.803-1.267.68-.311 1.429-.455 2.226-.455.749 0 1.404.096 1.99.311a5.033 5.033 0 011.475.861c.399.359.727.741.984 1.172.258.454.445.885.562 1.315l-1.99.86a4.344 4.344 0 00-.328-.86 3.03 3.03 0 00-.562-.79 4.117 4.117 0 00-.89-.573c-.352-.143-.75-.215-1.241-.215-.446 0-.89.095-1.289.263-.398.167-.773.43-1.077.765a3.47 3.47 0 00-.773 1.244c-.187.502-.281 1.1-.281 1.745 0 .646.094 1.22.281 1.722.187.502.445.932.75 1.267.304.359.679.622 1.1.79.422.167.867.262 1.312.262.515 0 .96-.071 1.335-.239.351-.167.656-.358.913-.598.234-.239.422-.502.586-.789.14-.263.234-.526.304-.74l1.944.86a6.771 6.771 0 01-.515 1.124 5.16 5.16 0 01-.843 1.052c-.352.311-.75.598-1.195.837a5.426 5.426 0 01-1.593.502c-.774.125-1.662.024-1.662.024M94.12 47.678c0 .602.069 1.156.228 1.662.137.506.342.963.615 1.324.273.362.615.65 1.002.868a2.76 2.76 0 001.367.337c.478 0 .934-.121 1.32-.337a3.22 3.22 0 001.003-.868c.273-.36.478-.818.638-1.324.136-.506.205-1.06.205-1.662 0-1.204-.274-2.167-.82-2.914-.57-.746-1.344-1.108-2.323-1.108-.98 0-1.777.362-2.346 1.108-.593.747-.889 1.71-.889 2.914m6.4 4.31v-.192c-.25.554-.66 1.036-1.23 1.445-.569.41-1.298.626-2.163.626a4.875 4.875 0 01-2.164-.481 4.666 4.666 0 01-1.617-1.325c-.456-.554-.797-1.228-1.048-1.974-.25-.747-.364-1.542-.364-2.409 0-.819.136-1.59.387-2.336a6.076 6.076 0 011.048-1.902 4.894 4.894 0 011.64-1.3 4.746 4.746 0 012.118-.483c.478 0 .91.049 1.298.169.364.12.683.265.957.434.273.192.5.409.683.626.182.24.319.481.41.722v-1.637h2.118v9.44c0 .506.023.963.046 1.373.023.41.045.65.068.77h-2.073a6.84 6.84 0 01-.068-.626 10.63 10.63 0 01-.045-.94M111.326 51.86a3.58 3.58 0 001.331-.262c.42-.168.794-.43 1.121-.789.328-.358.584-.788.771-1.29.187-.502.28-1.1.28-1.768 0-.67-.093-1.267-.28-1.769a3.807 3.807 0 00-.77-1.266 3.02 3.02 0 00-1.122-.788 3.573 3.573 0 00-1.331-.263c-.467 0-.911.095-1.331.263-.421.167-.795.43-1.121.788a3.802 3.802 0 00-.771 1.266c-.187.502-.28 1.1-.28 1.769 0 .669.093 1.266.28 1.768.186.502.443.932.77 1.29s.7.621 1.122.789c.42.167.864.262 1.33.262m0-10.203c.842 0 1.613.144 2.313.455.701.31 1.308.74 1.822 1.29s.91 1.17 1.191 1.911c.28.741.42 1.553.42 2.438 0 .884-.14 1.696-.42 2.437a5.818 5.818 0 01-1.19 1.935c-.515.55-1.122.956-1.823 1.267-.7.31-1.471.477-2.312.477-.841 0-1.612-.167-2.313-.477-.7-.31-1.308-.717-1.821-1.267A5.812 5.812 0 01106 50.188c-.281-.74-.42-1.553-.42-2.437 0-.885.139-1.697.42-2.438.28-.74.677-1.362 1.19-1.911a5.535 5.535 0 011.822-1.29c.701-.311 1.472-.455 2.313-.455M15.265 45.861h6.146c-.023-.836-.303-1.529-.818-2.102-.514-.55-1.261-.836-2.266-.836-.468 0-.889.071-1.239.238a3.044 3.044 0 00-.935.67 3.727 3.727 0 00-.63.955 3.007 3.007 0 00-.258 1.075m6.474 2.987l1.893.67c-.164.501-.374.979-.678 1.409a4.61 4.61 0 01-1.099 1.147 5.478 5.478 0 01-1.472.788 5.377 5.377 0 01-1.8.287 5.937 5.937 0 01-2.15-.406 5.09 5.09 0 01-1.799-1.195c-.537-.525-.935-1.17-1.238-1.935-.304-.765-.468-1.625-.468-2.605 0-.908.14-1.744.444-2.485a6.565 6.565 0 011.192-1.911 5.545 5.545 0 011.706-1.243 5.018 5.018 0 012.033-.43c.865 0 1.636.144 2.314.43.677.31 1.238.717 1.682 1.243a5.853 5.853 0 011.052 1.887c.234.741.35 1.577.35 2.461v.407c-.023.12-.023.239-.046.31h-8.46c.023.502.117.98.28 1.41.164.43.421.789.725 1.1.304.31.654.549 1.075.716.397.167.841.263 1.309.263.91 0 1.612-.215 2.103-.67a3.821 3.821 0 001.052-1.648" fill="#0075A8"/><path d="M98.323 36.63h-3.516v2.155h5.745c0-1.19-.998-2.155-2.23-2.155" fill="#45D0C1"/><path d="M86.906 56.022H81.16c0 1.19.999 2.155 2.23 2.155h3.516v-2.155z" fill="#96DD48"/></g></svg>